<?xml version="1.0" encoding="utf-8"?>
<!-- Generator: Adobe Illustrator 16.0.4, SVG Export Plug-In . SVG Version: 6.00 Build 0)  -->
<!DOCTYPE svg PUBLIC "-//W3C//DTD SVG 1.1//EN" "http://www.w3.org/Graphics/SVG/1.1/DTD/svg11.dtd">
<svg version="1.1" id="Ebene_1" xmlns="http://www.w3.org/2000/svg" xmlns:xlink="http://www.w3.org/1999/xlink" x="0px" y="0px"
	 width="85.04px" height="85.04px" viewBox="0 0 85.04 85.04" enable-background="new 0 0 85.04 85.04" xml:space="preserve">
<g>
	<defs>
		<rect id="SVGID_1_" x="17.54" y="17.541" width="49.957" height="49.958"/>
	</defs>
	<clipPath id="SVGID_2_">
		<use xlink:href="#SVGID_1_"  overflow="visible"/>
	</clipPath>
	<path clip-path="url(#SVGID_2_)" fill="#769ecc" d="M21.704,17.541c0,0-4.164,0-4.164,4.162v41.632c0,0,0,4.164,4.164,4.164h41.633
		c0,0,4.16,0,4.16-4.164V21.703c0,0,0-4.162-4.16-4.162H21.704z"/>
	<path clip-path="url(#SVGID_2_)" fill="#FFFFFF" d="M27.356,57.288c-0.504,0.414-0.504,1.168,0,1.586l1.922,1.926
		c0.504,0.416,1.172,0.25,1.586-0.17l10.289-10.119l-3.176-3.594L27.356,57.288z M63.231,28.685c-0.166-1.006-0.75-0.752-1-0.338
		c-0.254,0.422-1.508,2.26-2.012,3.098c-0.496,0.836-1.75,2.508-4.012,0.918c-2.426-1.756-1.59-2.926-1.17-3.678
		c0.416-0.838,1.67-3.096,1.924-3.346c0.164-0.252-0.086-1.09-0.836-0.754c-0.758,0.336-5.27,2.094-5.855,4.686
		c-0.668,2.674,0.5,5.018-1.758,7.357l-2.844,2.93l2.844,3.26l3.43-3.26c0.836-0.84,2.592-1.676,4.184-1.34
		c3.426,0.838,5.266-0.5,6.438-2.594C63.567,33.701,63.399,29.773,63.231,28.685 M40.067,37.128
		c-0.252-0.332-0.504-0.332-0.836-0.078l-3.012,2.592c-0.168,0.248-0.25,0.584,0,0.834l17.312,19.738
		c0.416,0.5,1.086,0.5,1.586,0.164l2.008-1.754c0.504-0.418,0.504-1.086,0.082-1.59L40.067,37.128z M28.106,36.044
		c2.008-1.506,3.598-0.502,5.77,2.006c0.254,0.254,0.586-0.084,0.75-0.168c0.172-0.164,3.012-2.762,3.184-2.926
		c0.168-0.084,0.332-0.336,0.082-0.588c-0.254-0.248-1.004-1.254-1.59-2.006c-3.762-4.932,10.371-8.281,8.199-8.281
		C43.413,24,38.981,24,38.31,24c-2.676,0.336-6.02,2.844-7.777,4.018c-2.176,1.506-3.012,2.424-3.176,2.508
		c-0.586,0.584-0.09,1.838-1.172,2.842c-1.254,1.002-2.008,0.252-2.68,0.838c-0.332,0.334-1.336,1.002-1.586,1.254
		c-0.254,0.248-0.336,0.668-0.086,1.002c0,0,2.676,2.93,2.926,3.182c0.172,0.248,0.758,0.502,1.172,0.164
		c0.336-0.334,1.336-1.172,1.508-1.338C27.606,38.386,27.267,36.712,28.106,36.044"/>
</g>
</svg>
