<?xml version="1.0" encoding="utf-8"?>
<!-- Generator: Adobe Illustrator 16.0.4, SVG Export Plug-In . SVG Version: 6.00 Build 0)  -->
<!DOCTYPE svg PUBLIC "-//W3C//DTD SVG 1.1//EN" "http://www.w3.org/Graphics/SVG/1.1/DTD/svg11.dtd">
<svg version="1.1" id="Ebene_1" xmlns="http://www.w3.org/2000/svg" xmlns:xlink="http://www.w3.org/1999/xlink" x="0px" y="0px"
	 width="85.04px" height="85.04px" viewBox="0 0 85.04 85.04" enable-background="new 0 0 85.04 85.04" xml:space="preserve">
<g>
	<defs>
		<rect id="SVGID_3_" x="17.54" y="17.54" width="49.959" height="49.96"/>
	</defs>
	<clipPath id="SVGID_2_">
		<use xlink:href="#SVGID_3_"  overflow="visible"/>
	</clipPath>
	<path clip-path="url(#SVGID_2_)" d="M21.702,17.54c0,0-4.162,0-4.162,4.164v41.63c0,0,0,4.166,4.162,4.166h41.635
		c0,0,4.162,0,4.162-4.166v-41.63c0,0,0-4.164-4.162-4.164H21.702z"/>
	<path clip-path="url(#SVGID_2_)" fill="#FFFFFF" d="M43.007,49.121c-4.045-1.555-5.344-2.816-5.344-5.636
		c0-1.631,1.299-1.113,1.783-4.152c0.242-1.262,1.293,0,1.539-2.893c0-1.113-0.568-1.412-0.568-1.412s0.24-1.705,0.404-3.041
		c0.164-1.631-0.891-5.783-6.473-5.783c-5.58,0-6.629,4.152-6.465,5.783c0.158,1.336,0.404,3.041,0.404,3.041
		s-0.568,0.299-0.568,1.412c0.242,2.893,1.295,1.631,1.535,2.893c0.486,3.039,1.781,2.521,1.781,4.152
		c0,2.82-1.295,4.082-5.338,5.636c-1.213,0.445-3.396,1.191-3.396,2.893v6.826h28.064v-5.117
		C50.366,52.164,46.966,50.68,43.007,49.121 M62.735,58.84c0,0-0.082-7.049-0.568-7.787c-0.645-1.113-2.262-1.854-5.256-2.967
		c-3.07-1.191-3.961-2.152-3.961-4.23c0-1.262,0.891-0.818,1.295-3.115c0.158-0.967,0.971,0,1.131-2.15
		c0-0.891-0.486-1.113-0.486-1.113s0.246-1.26,0.326-2.227c0.16-1.26-0.648-4.377-4.85-4.377c-4.125,0-4.936,3.117-4.775,4.377
		c0.082,0.967,0.322,2.227,0.322,2.227s-0.482,0.223-0.482,1.113c0.16,2.15,0.969,1.184,1.133,2.15
		c0.402,2.297,1.293,1.854,1.293,3.115c0,1.408-0.406,2.298-1.615,3.117c6.545,3.039,7.439,3.633,7.439,6.305v5.562H62.735z"/>
</g>
</svg>
