<?xml version="1.0" encoding="utf-8"?>
<!-- Generator: Adobe Illustrator 16.0.4, SVG Export Plug-In . SVG Version: 6.00 Build 0)  -->
<!DOCTYPE svg PUBLIC "-//W3C//DTD SVG 1.1//EN" "http://www.w3.org/Graphics/SVG/1.1/DTD/svg11.dtd">
<svg version="1.1" id="Ebene_1" xmlns="http://www.w3.org/2000/svg" xmlns:xlink="http://www.w3.org/1999/xlink" x="0px" y="0px"
	 width="85.04px" height="85.04px" viewBox="0 0 85.04 85.04" enable-background="new 0 0 85.04 85.04" xml:space="preserve">
<g>
	<defs>
		<rect id="SVGID_5_" x="22.489" y="23.021" width="40.527" height="40.527"/>
	</defs>
	<clipPath id="SVGID_2_">
		<use xlink:href="#SVGID_5_"  overflow="visible"/>
	</clipPath>
	<path clip-path="url(#SVGID_2_)" fill="#FFFFFF" d="M26.239,23.771c0,0-3,0-3,3v33.029c0,0,0,3,3,3h33.027c0,0,3,0,3-3V26.771
		c0,0,0-3-3-3H26.239z"/>
	<path clip-path="url(#SVGID_2_)" fill="none" stroke="#1D1D1B" stroke-width="1.5" d="M26.239,23.771c0,0-3,0-3,3v33.029
		c0,0,0,3,3,3h33.027c0,0,3,0,3-3V26.771c0,0,0-3-3-3H26.239z"/>
	<path clip-path="url(#SVGID_2_)" fill="#1D1D1B" d="M47.118,34.354c-1.158-0.812-2.73-1.213-4.727-1.213
		c-2.438,0-4.531,0.633-6.289,1.898l1.887,2.811c0.799-0.52,1.525-0.887,2.182-1.098c0.65-0.213,1.295-0.318,1.932-0.318
		c1.824,0,2.738,0.732,2.738,2.191c0,0.949-0.344,1.619-1.031,2.01c-0.691,0.391-1.785,0.59-3.277,0.59H39.04v3.121h1.465
		c1.617,0,2.795,0.188,3.533,0.566s1.107,1.02,1.107,1.928c0,1.01-0.322,1.744-0.961,2.201c-0.645,0.457-1.635,0.684-2.982,0.684
		c-0.879,0-1.764-0.119-2.66-0.355c-0.896-0.238-1.717-0.543-2.467-0.922v3.467c1.617,0.693,3.475,1.043,5.562,1.043
		c2.496,0,4.416-0.516,5.762-1.553c1.348-1.031,2.018-2.477,2.018-4.328c0-1.277-0.4-2.289-1.201-3.039
		c-0.797-0.754-1.975-1.223-3.533-1.418v-0.08c1.322-0.314,2.344-0.896,3.072-1.74c0.73-0.84,1.098-1.869,1.098-3.07
		C48.853,36.287,48.271,35.162,47.118,34.354"/>
</g>
</svg>
