<?xml version="1.0" encoding="utf-8"?>
<!-- Generator: Adobe Illustrator 16.0.4, SVG Export Plug-In . SVG Version: 6.00 Build 0)  -->
<!DOCTYPE svg PUBLIC "-//W3C//DTD SVG 1.1//EN" "http://www.w3.org/Graphics/SVG/1.1/DTD/svg11.dtd">
<svg version="1.1" id="Ebene_1" xmlns="http://www.w3.org/2000/svg" xmlns:xlink="http://www.w3.org/1999/xlink" x="0px" y="0px"
	 width="85.04px" height="85.04px" viewBox="0 0 85.04 85.04" enable-background="new 0 0 85.04 85.04" xml:space="preserve">
<g>
	<defs>
		<rect id="SVGID_7_" x="22.492" y="22.022" width="40.527" height="40.527"/>
	</defs>
	<clipPath id="SVGID_2_">
		<use xlink:href="#SVGID_7_"  overflow="visible"/>
	</clipPath>
	<path clip-path="url(#SVGID_2_)" fill="#FFFFFF" d="M26.242,22.772c0,0-3,0-3,3v33.031c0,0,0,3,3,3H59.27c0,0,3,0,3-3V25.772
		c0,0,0-3-3-3H26.242z"/>
	<path clip-path="url(#SVGID_2_)" fill="none" stroke="#1D1D1B" stroke-width="1.5" d="M26.242,22.772c0,0-3,0-3,3v33.031
		c0,0,0,3,3,3H59.27c0,0,3,0,3-3V25.772c0,0,0-3-3-3H26.242z"/>
	<path clip-path="url(#SVGID_2_)" fill="#1D1D1B" d="M39.098,44.534l3.533-5.34c0.457-0.684,0.846-1.389,1.172-2.109h0.105
		c-0.023,0.17-0.061,0.768-0.105,1.809c-0.041,1.035-0.064,1.828-0.064,2.371v3.27H39.098z M50.037,44.534h-2.318V32.417h-3.758
		l-8.449,12.449v2.832h8.227v3.994h3.98v-3.994h2.318V44.534z"/>
</g>
</svg>
