<?xml version="1.0" encoding="utf-8"?>
<!-- Generator: Adobe Illustrator 16.0.4, SVG Export Plug-In . SVG Version: 6.00 Build 0)  -->
<!DOCTYPE svg PUBLIC "-//W3C//DTD SVG 1.1//EN" "http://www.w3.org/Graphics/SVG/1.1/DTD/svg11.dtd">
<svg version="1.1" id="Ebene_1" xmlns="http://www.w3.org/2000/svg" xmlns:xlink="http://www.w3.org/1999/xlink" x="0px" y="0px"
	 width="85.04px" height="85.04px" viewBox="0 0 85.04 85.04" enable-background="new 0 0 85.04 85.04" xml:space="preserve">
<g>
	<defs>
		<rect id="SVGID_9_" x="22.489" y="23.021" width="40.527" height="40.527"/>
	</defs>
	<clipPath id="SVGID_2_">
		<use xlink:href="#SVGID_9_"  overflow="visible"/>
	</clipPath>
	<path clip-path="url(#SVGID_2_)" fill="#FFFFFF" d="M26.239,23.771c0,0-3,0-3,3v33.029c0,0,0,3,3,3h33.027c0,0,3,0,3-3V26.771
		c0,0,0-3-3-3H26.239z"/>
	<path clip-path="url(#SVGID_2_)" fill="none" stroke="#1D1D1B" stroke-width="1.5" d="M26.239,23.771c0,0-3,0-3,3v33.029
		c0,0,0,3,3,3h33.027c0,0,3,0,3-3V26.771c0,0,0-3-3-3H26.239z"/>
	<path clip-path="url(#SVGID_2_)" fill="#1D1D1B" d="M41.097,40.662l-0.459,0.094l0.355-3.783h6.883v-3.457H37.419l-0.723,9.822
		l1.623,0.867c0.35-0.102,0.807-0.201,1.371-0.295c0.561-0.094,1.076-0.139,1.541-0.139c2.572,0,3.861,0.973,3.861,2.914
		c0,2.041-1.242,3.061-3.729,3.061c-0.83,0-1.703-0.117-2.625-0.352c-0.924-0.232-1.732-0.533-2.424-0.902v3.521
		c1.314,0.691,3.047,1.039,5.191,1.039c2.467,0,4.369-0.576,5.695-1.738c1.326-1.16,1.992-2.816,1.992-4.969
		c0-1.82-0.553-3.254-1.654-4.301c-1.105-1.043-2.588-1.568-4.451-1.568C42.298,40.477,41.636,40.537,41.097,40.662"/>
</g>
</svg>
