<?xml version="1.0" encoding="UTF-8" standalone="no"?>
<!-- Generator: Adobe Illustrator 15.0.2, SVG Export Plug-In . SVG Version: 6.00 Build 0)  -->

<svg
   xmlns:dc="http://purl.org/dc/elements/1.1/"
   xmlns:cc="http://creativecommons.org/ns#"
   xmlns:rdf="http://www.w3.org/1999/02/22-rdf-syntax-ns#"
   xmlns:svg="http://www.w3.org/2000/svg"
   xmlns="http://www.w3.org/2000/svg"
   xmlns:sodipodi="http://sodipodi.sourceforge.net/DTD/sodipodi-0.dtd"
   xmlns:inkscape="http://www.inkscape.org/namespaces/inkscape"
   version="1.1"
   id="Ebene_1"
   x="0px"
   y="0px"
   width="841.89px"
   height="595.28px"
   viewBox="0 0 841.89 595.28"
   enable-background="new 0 0 841.89 595.28"
   xml:space="preserve"
   inkscape:version="0.48.4 r9939"
   sodipodi:docname="kwst-logo.svg"><metadata
     id="metadata79"><rdf:RDF><cc:Work
         rdf:about=""><dc:format>image/svg+xml</dc:format><dc:type
           rdf:resource="http://purl.org/dc/dcmitype/StillImage" /><dc:title></dc:title></cc:Work></rdf:RDF></metadata><defs
     id="defs77" /><sodipodi:namedview
     pagecolor="#ffffff"
     bordercolor="#666666"
     borderopacity="1"
     objecttolerance="10"
     gridtolerance="10"
     guidetolerance="10"
     inkscape:pageopacity="0"
     inkscape:pageshadow="2"
     inkscape:window-width="1680"
     inkscape:window-height="1025"
     id="namedview75"
     showgrid="false"
     inkscape:zoom="0.79290414"
     inkscape:cx="497.78612"
     inkscape:cy="445.57846"
     inkscape:window-x="0"
     inkscape:window-y="0"
     inkscape:window-maximized="1"
     inkscape:current-layer="Ebene_1" /><g
     id="g3"><g
       id="g5"><path
         fill="#E95E27"
         d="M621.174,341.031l0.309-1.11c0.341-1.303,0.607-2.258,0.951-3.214l3.134-9.329    c0.193-0.575,0.231-0.61,0.843-0.61h3.52c0.61,0,0.728,0.115,0.765,0.762l1.186,23.937v0.271c0,0.421-0.19,0.534-0.725,0.534    h-3.368c-0.688,0-0.762-0.113-0.805-0.766l-0.229-13.115c-0.034-0.422-0.034-0.84-0.034-1.3c0-0.341,0-0.804,0.034-1.338v-1.226    l0.042-1.489c-0.614,2.641-0.997,4.092-1.38,5.392l-2.409,7.607c-0.187,0.575-0.229,0.614-0.836,0.614h-2.262    c-0.608,0-0.646-0.039-0.837-0.653l-2.064-7.225c-0.268-0.917-0.843-3.249-1.377-5.735l0.035,1.604v1.415v1.645v1.187    l-0.306,12.617c0,0.688-0.112,0.766-0.763,0.766h-3.023c-0.572,0-0.724-0.113-0.724-0.534v-0.231l1.067-23.976    c0.039-0.646,0.119-0.762,0.764-0.762h3.676c0.576,0,0.65,0.073,0.84,0.61l2.982,9.371    C620.376,337.431,620.756,339.078,621.174,341.031"
         id="path7" /><path
         fill="#E95E27"
         d="M641.176,340.915h5.809c-0.076-3.098-0.804-4.243-2.676-4.243    C642.359,336.672,641.517,337.855,641.176,340.915 M641.099,344.357c0.077,3.174,1.377,4.702,4.089,4.702    c1.419,0,2.83-0.383,4.281-1.146c0.195-0.119,0.348-0.157,0.463-0.157c0.19,0,0.341,0.115,0.422,0.347l0.955,2.179    c0.076,0.228,0.109,0.305,0.109,0.421c0,0.457-0.533,0.805-2.065,1.377c-1.525,0.572-2.979,0.84-4.623,0.84    c-5.394,0-8.296-3.403-8.296-9.673c0-6.003,3.211-9.979,8.107-9.979c4.928,0,7.375,3.403,7.375,10.133    c0,0.763-0.151,0.956-0.84,0.956H641.099z"
         id="path9" /><path
         fill="#E95E27"
         d="M662.59,328.449c0,1.683-1.342,3.021-3.023,3.021c-1.645,0-2.982-1.338-2.982-3.021    c0-1.644,1.338-2.981,3.023-2.981C661.248,325.468,662.59,326.806,662.59,328.449 M657.35,337.36h-2.831    c-0.534,0-0.61-0.077-0.61-0.65v-2.146c0-0.572,0.076-0.649,0.61-0.649h6.923c0.533,0,0.611,0.077,0.611,0.649v17.053    c0,0.576-0.078,0.653-0.611,0.653H658c-0.573,0-0.65-0.077-0.65-0.653V337.36z"
         id="path11" /><path
         fill="#E95E27"
         d="M672.797,335.637c1.873-1.684,3.48-2.372,5.584-2.372c3.326,0,4.818,1.838,4.818,5.891v12.465    c0,0.573-0.076,0.65-0.649,0.65h-3.442c-0.571,0-0.614-0.077-0.614-0.65v-11.433c0-2.181-0.646-3.098-2.14-3.098    c-1.105,0-1.99,0.421-3.252,1.531v12.999c0,0.573-0.073,0.65-0.649,0.65h-3.442c-0.534,0-0.607-0.077-0.607-0.65v-12.465    c0-1.605-0.27-2.946-0.804-4.053c-0.078-0.155-0.116-0.268-0.116-0.345c0-0.151,0.116-0.267,0.341-0.344l3.294-1.226    c0.039-0.036,0.074-0.036,0.148-0.074h0.192C671.918,333.114,672.379,334.027,672.797,335.637"
         id="path13" /><path
         fill="#E95E27"
         d="M704.691,341.182v7.035h1.715c3.367,0,4.671-0.955,4.671-3.478c0-2.563-1.262-3.558-4.592-3.558H704.691z     M704.691,330.515v6.846h1.566h0.533c2.294,0,3.52-1.265,3.52-3.522c0-2.291-1.152-3.323-3.674-3.323H704.691z M711.533,338.924    c2.947,0.766,4.665,3.062,4.665,6.118c0,3.21-1.95,6.121-4.587,6.81c-1.338,0.342-2.027,0.419-4.665,0.419h-6.35    c-0.683,0-0.767-0.077-0.767-0.766v-23.976c0-0.646,0.084-0.762,0.767-0.762h6.04c4.058,0,5.354,0.344,6.691,1.604    c1.226,1.184,1.956,3.021,1.956,4.935C715.284,336.019,714.172,337.704,711.533,338.924"
         id="path15" /><path
         fill="#E95E27"
         d="M724.768,340.915h5.809c-0.073-3.098-0.801-4.243-2.676-4.243    C725.951,336.672,725.112,337.855,724.768,340.915 M724.69,344.357c0.077,3.174,1.37,4.702,4.092,4.702    c1.412,0,2.826-0.383,4.278-1.146c0.192-0.119,0.344-0.157,0.464-0.157c0.191,0,0.34,0.115,0.417,0.347l0.958,2.179    c0.072,0.228,0.112,0.305,0.112,0.421c0,0.457-0.533,0.805-2.063,1.377c-1.528,0.572-2.982,0.84-4.626,0.84    c-5.389,0-8.297-3.403-8.297-9.673c0-6.003,3.21-9.979,8.104-9.979c4.932,0,7.383,3.403,7.383,10.133    c0,0.763-0.154,0.956-0.843,0.956H724.69z"
         id="path17" /><path
         fill="#E95E27"
         d="M744.229,336.173l0.386-0.418c1.562-1.875,2.631-2.486,4.277-2.486c1.113,0,2.104,0.421,2.104,0.839    c0,0.074-0.039,0.271-0.077,0.384l-1.11,3.02c-0.112,0.271-0.187,0.345-0.341,0.345c-0.042,0-0.115,0-0.228-0.038    c-0.464-0.231-1.074-0.345-1.493-0.345c-0.804,0-1.683,0.534-2.83,1.795v12.35c0,0.579-0.078,0.653-0.651,0.653h-3.44    c-0.534,0-0.612-0.074-0.612-0.653v-11.278c0-1.91-0.263-3.21-0.878-4.622l-0.231-0.537c-0.035-0.116-0.074-0.229-0.074-0.31    c0-0.189,0.116-0.344,0.345-0.418l3.02-1.071c0.193-0.039,0.304-0.074,0.426-0.074    C743.271,333.307,743.85,334.414,744.229,336.173"
         id="path19" /><path
         fill="#E95E27"
         d="M763.929,347.795v-13.002c0-0.534,0.039-0.572,0.534-0.686l3.477-0.762h0.157    c0.075-0.042,0.156-0.042,0.19-0.042c0.268,0,0.344,0.192,0.344,0.614v13.688c0,1.834,0.156,2.677,0.728,3.748    c0.039,0.151,0.078,0.267,0.078,0.341c0,0.192-0.078,0.27-0.348,0.309l-3.095,0.728c-0.076,0-0.115,0-0.193,0.035h-0.226    c-0.424,0-0.846-0.725-1.112-2.026c-1.687,1.608-3.017,2.181-5.16,2.181c-1.872,0-3.328-0.572-4.208-1.605    c-1.07-1.264-1.261-2.143-1.261-5.661v-10.86c0-0.534,0.074-0.572,0.572-0.686l3.442-0.762c0.116,0,0.231-0.042,0.307-0.042    c0.305,0,0.421,0.192,0.421,0.614v11.545v0.345c0,2.486,0.572,3.364,2.258,3.364C761.863,349.172,762.818,348.754,763.929,347.795    "
         id="path21" /><path
         fill="#E95E27"
         d="M775.786,333.918v-1.569c0-2.866,0.418-4.282,1.717-5.504c1.11-0.997,2.448-1.493,4.244-1.493    c1.45,0,3.291,0.383,4.129,0.84c0.269,0.115,0.384,0.309,0.384,0.499c0,0.073,0,0.115-0.039,0.154l-0.038,0.15l-0.688,2.638    c-0.035,0.232-0.152,0.345-0.341,0.345c-0.077,0-0.231-0.035-0.341-0.112c-0.85-0.383-1.5-0.537-2.223-0.537    c-1.684,0-2.104,0.572-2.104,3.021v1.569h4.243c0.461,0,0.649,0.112,0.649,0.344c0,0.075,0,0.113-0.036,0.229l-0.037,0.154    l-0.537,2.177c-0.078,0.384-0.303,0.538-0.686,0.538h-3.597v14.26c0,0.573-0.073,0.65-0.607,0.65h-3.442    c-0.576,0-0.649-0.077-0.649-0.65v-14.26h-2.796c-0.611,0-0.646-0.042-0.646-0.84v-0.042v-2.064c0-0.384,0.148-0.496,0.646-0.496    H775.786z"
         id="path23" /></g><g
       id="g25"><path
         fill="#005F95"
         d="M467.14,300.763l0.273-1.544l0.331-2.262c0.168-1.325,0.554-3.307,0.772-4.243l4.304-18.69l0.161-0.498    c0.058-0.438,0.331-0.605,1.049-0.605h4.134c0.662,0,0.937,0.167,1.049,0.605l0.105,0.55l3.7,16.869    c0.439,1.824,0.878,4.581,1.264,7.501l0.332,2.59c0.437-4.465,0.829-7.437,1.321-10.091l3.197-17.197    c0.112-0.717,0.223-0.826,0.937-0.826h6.727c0.775,0,0.938,0.167,0.938,0.936v3.307c0,0.775-0.163,0.936-0.938,0.936h-1.985    l-7.167,31.257c-0.164,0.827-0.386,0.937-1.155,0.937h-4.577c-0.881,0-0.99-0.052-1.157-0.937l-3.581-18.136    c-0.608-2.976-1.045-6.115-1.321-9.316c-0.387,3.417-0.94,6.891-1.493,9.376l-4.188,18.075c-0.219,0.885-0.273,0.937-1.213,0.937    h-4.629c-0.881,0-0.99-0.052-1.157-0.937l-6.447-31.257h-1.927c-0.769,0-0.937-0.161-0.937-0.936v-3.307    c0-0.77,0.168-0.936,0.937-0.936h7.055c0.656,0,0.769,0.109,0.933,0.826l3.307,17.587c0.335,1.711,0.554,3.693,0.882,7.112    C466.973,298.945,467.082,299.711,467.14,300.763"
         id="path27" /><path
         fill="#005F95"
         d="M519.22,278.654v8.984h9.149c0.936,0,1.105,0.113,1.105,1.104v3.529c0,0.939-0.17,1.104-1.105,1.104    h-9.149v10.583h7.167v-4.027c0-0.766,0.11-0.876,0.882-0.876h3.639c0.769,0,0.938,0.161,0.938,0.876v8.656    c0,0.994-0.112,1.103-1.104,1.103h-21.443c-0.994,0-1.1-0.108-1.1-1.103v-2.921c0-0.994,0.105-1.104,1.1-1.104h2.754V278.1h-2.754    c-0.994,0-1.1-0.161-1.1-1.104v-2.973c0-0.936,0.105-1.103,1.1-1.103h21.443c0.715,0,0.878,0.167,0.878,0.936v8.376    c0,0.775-0.163,0.939-0.878,0.939h-3.692c-0.721,0-0.882-0.164-0.882-0.939v-3.58H519.22z"
         id="path29" /><path
         fill="#005F95"
         d="M556.196,289.182h1.709c4.742,0,6.453-1.486,6.453-5.678c0-3.914-1.438-5.179-5.899-5.179h-2.263V289.182z     M565.407,293.261l6.504,11.3h2.695c0.721,0,0.885,0.167,0.885,0.885v3.307c0,0.775-0.164,0.936-0.885,0.936h-7.054    c-0.551,0-0.663,0-0.826-0.108c-0.168-0.109-0.168-0.109-0.445-0.656l-7.218-14.393h-2.867v10.03h2.925    c0.939,0,1.046,0.112,1.046,1.104v2.921c0,0.994-0.106,1.103-1.046,1.103H546.44c-0.991,0-1.1-0.108-1.1-1.103v-2.921    c0-0.991,0.108-1.104,1.1-1.104h2.757V278.1h-2.757c-0.991,0-1.1-0.161-1.1-1.1v-2.977c0-0.939,0.108-1.103,1.1-1.103h12.623    c4.909,0,7.167,0.607,9.264,2.374c2.091,1.76,3.195,4.571,3.195,7.991C571.522,288.246,569.813,291.057,565.407,293.261"
         id="path31" /><path
         fill="#005F95"
         d="M595.934,289.236l11.465-15.71c0.387-0.547,0.496-0.605,1.158-0.605h5.897    c0.771,0,0.936,0.167,0.936,0.936v3.307c0,0.775-0.164,0.936-0.936,0.936h-2.48l-9.702,12.796l11.027,13.665h1.817    c0.769,0,0.938,0.167,0.938,0.885v3.307c0,0.772-0.17,0.936-0.938,0.936h-6.006c-0.662,0-0.778-0.051-1.049-0.385l-0.335-0.441    l-11.793-15.435v11.134h2.535c0.991,0,1.104,0.109,1.104,1.104v2.921c0,0.994-0.112,1.103-1.104,1.103h-12.458    c-0.991,0-1.101-0.108-1.101-1.103v-2.921c0-0.994,0.109-1.104,1.101-1.104h2.757V278.1h-2.757c-0.991,0-1.101-0.161-1.101-1.104    v-2.973c0-0.936,0.109-1.103,1.101-1.103h12.458c0.991,0,1.104,0.167,1.104,1.103v2.973c0,0.943-0.112,1.104-1.104,1.104h-2.535    V289.236z"
         id="path33" /><path
         fill="#005F95"
         d="M631.145,303.349c2.152,0.775,3.475,1.052,5.07,1.052c3.037,0,4.8-1.656,4.8-4.522    c0-2.87-0.663-3.475-7.331-6.668c-3.252-1.547-4.961-2.589-5.954-3.696c-1.486-1.596-2.316-3.86-2.316-6.556    c0-6.621,4.522-10.754,11.8-10.754c4.901,0,9.585,1.653,9.585,3.361v7.276c0,0.721-0.16,0.881-0.933,0.881h-3.969    c-0.715,0-0.882-0.16-0.882-0.881v-4.188c-1.6-0.496-2.425-0.66-3.584-0.66c-3.14,0-5.015,1.486-5.015,4.021    c0,1.985,0.881,2.921,4.739,4.851c5.898,2.921,7.057,3.693,8.601,5.791c1.435,1.927,2.149,4.133,2.149,6.669    c0,6.564-4.684,11.081-11.522,11.081c-5.733,0-11.021-1.649-11.021-3.419v-8.1c0-0.776,0.161-0.937,0.937-0.937h3.967    c0.72,0,0.938,0.222,0.938,0.937L631.145,303.349z"
         id="path35" /><path
         fill="#005F95"
         d="M674.356,278.708v25.854h3.639c0.991,0,1.1,0.109,1.1,1.104v2.921c0,0.994-0.108,1.103-1.1,1.103h-14.444    c-0.935,0-1.103-0.108-1.103-1.103v-2.921c0-0.994,0.168-1.104,1.103-1.104h3.643v-25.854h-3.919v5.182    c0,0.77-0.163,0.936-0.936,0.936h-3.143c-0.771,0-0.939-0.167-0.939-0.936v-10.033c0-0.77,0.168-0.936,0.939-0.936h23.205    c0.722,0,0.885,0.219,0.885,0.936v10.033c0,0.77-0.163,0.936-0.885,0.936h-3.194c-0.717,0-0.885-0.167-0.885-0.936v-5.182H674.356    z"
         id="path37" /><path
         fill="#005F95"
         d="M700.809,295.03h7.222l-2.207-9.265c-0.276-1.103-0.55-2.315-0.713-3.583l-0.277-1.656l-0.332-2.201    c-0.604,4.024-0.885,5.678-1.325,7.496L700.809,295.03z M709.352,299.933h-9.315l-1.212,4.632h2.039    c0.769,0,0.936,0.164,0.936,0.882v3.307c0,0.775-0.167,0.936-0.936,0.936h-11.024c-0.774,0-0.939-0.16-0.939-0.936v-3.307    c0-0.718,0.22-0.882,0.939-0.882h1.817l9.37-30.707c0.168-0.608,0.22-0.66,0.388-0.77c0.167-0.112,0.218-0.167,0.826-0.167h5.514    c0.885,0,0.936,0.054,1.213,0.936l9.148,30.707h2.039c0.715,0,0.939,0.164,0.939,0.882v3.307c0,0.775-0.225,0.936-0.939,0.936    H708.58c-0.772,0-0.881-0.16-0.881-0.936v-3.307c0-0.718,0.108-0.882,0.881-0.882h1.981L709.352,299.933z"
         id="path39" /><path
         fill="#005F95"
         d="M742.583,278.708v25.854h3.637c0.995,0,1.104,0.109,1.104,1.104v2.921c0,0.994-0.109,1.103-1.104,1.103    H731.78c-0.937,0-1.106-0.108-1.106-1.103v-2.921c0-0.994,0.17-1.104,1.106-1.104h3.642v-25.854h-3.919v5.182    c0,0.77-0.167,0.936-0.937,0.936h-3.142c-0.772,0-0.94-0.167-0.94-0.936v-10.033c0-0.77,0.168-0.936,0.94-0.936h23.206    c0.721,0,0.881,0.219,0.881,0.936v10.033c0,0.77-0.16,0.936-0.881,0.936h-3.197c-0.715,0-0.882-0.167-0.882-0.936v-5.182H742.583z    "
         id="path41" /><path
         fill="#005F95"
         d="M777.854,278.708v25.854h3.637c0.992,0,1.103,0.109,1.103,1.104v2.921c0,0.994-0.11,1.103-1.103,1.103    h-14.441c-0.939,0-1.103-0.108-1.103-1.103v-2.921c0-0.994,0.163-1.104,1.103-1.104h3.642v-25.854h-3.919v5.182    c0,0.77-0.163,0.936-0.935,0.936h-3.144c-0.771,0-0.938-0.167-0.938-0.936v-10.033c0-0.77,0.167-0.936,0.938-0.936h23.206    c0.72,0,0.885,0.219,0.885,0.936v10.033c0,0.77-0.165,0.936-0.885,0.936h-3.197c-0.714,0-0.882-0.167-0.882-0.936v-5.182H777.854z    "
         id="path43" /></g><g
       id="g45"><path
         fill="#005F95"
         d="M82,289.208l11.467-15.714c0.382-0.547,0.497-0.605,1.155-0.605h5.9c0.771,0,0.936,0.167,0.936,0.94v3.307    c0,0.775-0.165,0.936-0.936,0.936h-2.48l-9.7,12.793l11.021,13.665h1.818c0.774,0,0.943,0.171,0.943,0.885v3.31    c0,0.772-0.169,0.937-0.943,0.937h-6.005c-0.661,0-0.774-0.055-1.05-0.389l-0.33-0.438L82,293.396v11.133h2.537    c0.992,0,1.1,0.109,1.1,1.106v2.921c0,0.991-0.107,1.104-1.1,1.104h-12.46c-0.99,0-1.097-0.112-1.097-1.104v-2.921    c0-0.997,0.107-1.106,1.097-1.106h2.759v-26.458h-2.759c-0.99,0-1.097-0.161-1.097-1.104v-2.976c0-0.936,0.107-1.104,1.097-1.104    h12.46c0.992,0,1.1,0.167,1.1,1.104v2.976c0,0.942-0.107,1.104-1.1,1.104H82V289.208z"
         id="path47" /><path
         fill="#005F95"
         d="M117.658,291.412c0,9.042,1.927,13.507,5.727,13.507c3.862,0,5.732-4.521,5.732-13.668    c0-9.21-1.871-13.62-5.732-13.62C119.638,277.63,117.658,282.43,117.658,291.412 M110.105,290.755    c0-7.501,1.486-12.243,4.74-15.44c2.259-2.149,5.236-3.307,8.656-3.307c8.707,0,13.169,6.285,13.169,18.747    c0,13.228-4.519,19.845-13.446,19.845C114.401,310.6,110.105,304.15,110.105,290.755"
         id="path49" /><path
         fill="#005F95"
         d="M165.222,293.785c0.162-0.714,0.33-1.212,0.382-1.543c0.666-2.706,0.942-3.587,1.44-5.021l4.63-13.447    c0.219-0.553,0.219-0.604,0.383-0.717c0.224-0.109,0.277-0.165,0.83-0.165h9.204c0.773,0,0.936,0.165,0.936,0.937v3.307    c0,0.772-0.162,0.933-0.936,0.933h-2.921l1.321,26.461h2.644c0.775,0,0.942,0.168,0.942,0.888v3.307    c0,0.772-0.167,0.937-0.942,0.937h-11.957c-0.774,0-0.943-0.164-0.943-0.937v-3.307c0-0.72,0.169-0.888,0.943-0.888h2.533    l-0.333-14.881l0.056-2.152v-1.927v-1.766v-2.04c-0.936,4.079-1.321,5.517-2.096,7.939l-3.581,10.969    c-0.276,0.827-0.333,0.885-1.211,0.885h-3.038c-0.881,0-0.941-0.058-1.211-0.936l-3.09-10.419l-0.553-2.207l-0.492-2.04    l-0.554-2.265l-0.388-1.927l-0.052,1.988v2.148v2.483l-0.057,1.981l-0.33,14.164h2.477c0.775,0,0.943,0.168,0.943,0.888v3.307    c0,0.772-0.167,0.937-0.943,0.937h-11.41c-0.767,0-0.935-0.164-0.935-0.937v-3.307c0-0.72,0.167-0.888,0.935-0.888h2.652    l1.211-26.461H148.9c-0.715,0-0.881-0.161-0.881-0.933v-3.307c0-0.772,0.167-0.937,0.881-0.937h9.263    c0.823,0,0.936,0.11,1.212,0.882l4.356,13.507C164.448,289.536,164.778,290.916,165.222,293.785"
         id="path51" /><path
         fill="#005F95"
         d="M206.61,289.041h1.71c4.74,0,6.45-1.49,6.45-5.566c0-3.918-1.437-5.182-5.9-5.182h-2.26V289.041z     M206.61,294.999v9.531h3.581c0.991,0,1.103,0.113,1.103,1.104v2.924c0,0.991-0.112,1.104-1.103,1.104h-13.506    c-0.991,0-1.104-0.112-1.104-1.104v-2.924c0-0.99,0.113-1.104,1.104-1.104h2.761v-26.458h-2.761c-0.991,0-1.104-0.164-1.104-1.104    v-2.976c0-0.936,0.113-1.101,1.104-1.101h12.57c5.126,0,7.606,0.664,9.592,2.365c1.766,1.656,2.918,4.632,2.918,7.778    c0,7.221-4.848,11.963-12.233,11.963H206.61z"
         id="path53" /><path
         fill="#005F95"
         d="M243.643,278.625v8.981h9.15c0.936,0,1.104,0.113,1.104,1.103v3.529c0,0.943-0.167,1.104-1.104,1.104    h-9.15v10.583h7.164V299.9c0-0.769,0.113-0.878,0.883-0.878h3.64c0.773,0,0.937,0.164,0.937,0.878v8.656    c0,0.991-0.109,1.104-1.104,1.104h-21.444c-0.988,0-1.097-0.112-1.097-1.104v-2.921c0-0.997,0.109-1.106,1.097-1.106h2.759    v-26.458h-2.759c-0.988,0-1.097-0.161-1.097-1.104v-2.976c0-0.936,0.109-1.104,1.097-1.104h21.444c0.718,0,0.881,0.167,0.881,0.94    v8.376c0,0.771-0.164,0.939-0.881,0.939h-3.69c-0.722,0-0.883-0.167-0.883-0.939v-3.58H243.643z"
         id="path55" /><path
         fill="#005F95"
         d="M286.135,278.676v25.853h3.637c0.995,0,1.103,0.113,1.103,1.106v2.921c0,0.991-0.107,1.104-1.103,1.104    h-14.444c-0.936,0-1.105-0.112-1.105-1.104v-2.921c0-0.993,0.169-1.106,1.105-1.106h3.643v-25.853h-3.917v5.185    c0,0.766-0.166,0.936-0.939,0.936h-3.143c-0.767,0-0.936-0.17-0.936-0.936v-10.033c0-0.772,0.168-0.94,0.936-0.94h23.206    c0.722,0,0.883,0.223,0.883,0.94v10.033c0,0.766-0.161,0.936-0.883,0.936h-3.194c-0.716,0-0.883-0.17-0.883-0.936v-5.185H286.135z    "
         id="path57" /><path
         fill="#005F95"
         d="M317.93,278.625v8.981h9.152c0.935,0,1.104,0.113,1.104,1.103v3.529c0,0.943-0.169,1.104-1.104,1.104    h-9.152v10.583h7.166V299.9c0-0.769,0.111-0.878,0.881-0.878h3.64c0.775,0,0.936,0.164,0.936,0.878v8.656    c0,0.991-0.108,1.104-1.104,1.104h-21.44c-0.992,0-1.1-0.112-1.1-1.104v-2.921c0-0.997,0.107-1.106,1.1-1.106h2.757v-26.458    h-2.757c-0.992,0-1.1-0.161-1.1-1.104v-2.976c0-0.936,0.107-1.104,1.1-1.104h21.44c0.723,0,0.883,0.167,0.883,0.94v8.376    c0,0.771-0.16,0.939-0.883,0.939h-3.69c-0.717,0-0.882-0.167-0.882-0.939v-3.58H317.93z"
         id="path59" /><path
         fill="#005F95"
         d="M366.983,298.028l-0.054-1.93c-0.056-1.653-0.115-3.86-0.115-5.015v-13.012h-2.754    c-0.936,0-1.104-0.164-1.104-1.104v-2.976c0-0.936,0.113-1.104,1.104-1.104h11.627c0.996,0,1.105,0.167,1.105,1.104v2.976    c0,0.939-0.109,1.104-1.105,1.104h-2.753v30.485c0,0.991-0.165,1.101-1.103,1.101h-3.528c-0.823,0-0.883-0.052-1.266-0.715    l-9.864-18.354c-1.709-3.198-2.208-4.301-3.258-7.28l0.116,2.204c0.053,1.766,0.107,2.316,0.107,3.696v0.991v14.334h2.759    c0.934,0,1.1,0.106,1.1,1.104v2.921c0,0.991-0.11,1.101-1.1,1.101h-11.632c-0.991,0-1.101-0.109-1.101-1.101v-2.921    c0-0.997,0.109-1.104,1.101-1.104h2.753v-26.461h-2.753c-0.991,0-1.101-0.164-1.101-1.104v-2.976c0-0.936,0.109-1.104,1.101-1.104    h8.268c0.771,0,0.878,0.113,1.215,0.775l8.926,16.596C364.997,292.682,366.155,295.384,366.983,298.028"
         id="path61" /><path
         fill="#005F95"
         d="M402.473,278.625h-8.822v4.41c0,0.765-0.164,0.936-0.878,0.936h-3.806c-0.773,0-0.936-0.171-0.936-0.936    v-9.207c0-0.772,0.163-0.94,0.936-0.94h19.846c0.993,0,1.101,0.167,1.101,1.104v4.851l-14.665,24.859h9.591l0.883-4.134    c0.109-0.546,0.33-0.765,0.663-0.765c0.112,0,0.164,0,0.606,0.109l3.917,0.828c0.547,0.16,0.768,0.327,0.768,0.655    c0,0.11-0.054,0.387-0.11,0.608l-1.761,7.72c-0.109,0.548-0.169,0.663-0.276,0.772c-0.169,0.164-0.33,0.164-0.883,0.164H388.47    c-0.771,0-0.936-0.164-0.936-0.937v-4.468L402.473,278.625z"
         id="path63" /></g><g
       id="g65"><path
         fill="#005F95"
         d="M550.232,325.471c-3.232,8.025-7.627,15.73-13.295,22.836c-19.075,23.928-48.701,36.768-79.249,34.353    c-18.297-1.444-35.585-8.286-49.997-19.776l-11.454,14.368c17.291,13.784,38.039,21.984,59.997,23.728    c36.646,2.893,72.185-12.517,95.069-41.214c8.306-10.412,14.508-22.012,18.541-34.294H550.232z"
         id="path67" /><path
         fill="#D4E6F5"
         d="M473.96,318.985c-0.071,0.022-0.133,0.052-0.196,0.071c-15.193,4.355-31.098-4.459-35.453-19.651    c-4.361-15.193,4.459-31.101,19.655-35.456c4.786-1.373,9.64-1.432,14.188-0.399l3.89-17.817    c-7.398-1.657-15.303-1.535-23.104,0.698c-24.89,7.138-39.287,33.107-32.148,57.996c7.136,24.889,33.107,39.28,57.993,32.146    c0.066-0.023,0.128-0.052,0.199-0.067L473.96,318.985z"
         id="path69" /><path
         fill="#005F95"
         d="M465.705,199.009c38.599,0,71.689,23.907,85.335,57.681h19.424    c-14.44-44.064-55.876-75.901-104.759-75.901c-21.546,0-41.631,6.208-58.61,16.892l9.709,15.457    C430.98,204.201,447.739,199.009,465.705,199.009"
         id="path71" /><path
         fill="#7DB5D7"
         d="M515.868,325.555c-10.902,16.097-29.305,26.722-50.17,26.722c-20.863,0-39.272-10.625-50.178-26.722    h-20.953c12.672,26.562,39.735,44.938,71.131,44.938c31.39,0,58.45-18.377,71.124-44.938H515.868z"
         id="path73" /></g></g></svg>